<?xml version="1.0" encoding="UTF-8" standalone="no"?>
<!DOCTYPE svg PUBLIC "-//W3C//DTD SVG 1.1//EN"
 "http://www.w3.org/Graphics/SVG/1.1/DTD/svg11.dtd">
<!-- Generated by graphviz version 10.0.1 (20240210.2158)
 -->
<!-- Title: Flowchart Pages: 1 -->
<svg width="615pt" height="912pt"
 viewBox="0.00 0.00 615.19 912.25" xmlns="http://www.w3.org/2000/svg" xmlns:xlink="http://www.w3.org/1999/xlink">
<g id="graph0" class="graph" transform="scale(1 1) rotate(0) translate(4 908.25)">
<title>Flowchart</title>
<polygon fill="white" stroke="none" points="-4,4 -4,-908.25 611.19,-908.25 611.19,4 -4,4"/>
<!-- A -->
<g id="node1" class="node">
<title>A</title>
<ellipse fill="none" stroke="black" cx="426" cy="-886.25" rx="31.6" ry="18"/>
<text text-anchor="middle" x="426" y="-880.83" font-family="Times New Roman,serif" font-size="14.00">开始</text>
</g>
<!-- B -->
<g id="node2" class="node">
<title>B</title>
<polygon fill="none" stroke="black" points="426,-831.25 244.81,-813.25 426,-795.25 607.19,-813.25 426,-831.25"/>
<text text-anchor="middle" x="426" y="-808.2" font-family="Times New Roman,serif" font-size="14.00">存在状态为运行的进程P?</text>
</g>
<!-- A&#45;&gt;B -->
<g id="edge1" class="edge">
<title>A&#45;&gt;B</title>
<path fill="none" stroke="black" d="M426,-868.06C426,-860.48 426,-851.35 426,-842.79"/>
<polygon fill="black" stroke="black" points="429.5,-842.79 426,-832.79 422.5,-842.79 429.5,-842.79"/>
</g>
<!-- C -->
<g id="node3" class="node">
<title>C</title>
<polygon fill="none" stroke="black" points="217,-743.5 66.21,-725.5 217,-707.5 367.79,-725.5 217,-743.5"/>
<text text-anchor="middle" x="217" y="-720.45" font-family="Times New Roman,serif" font-size="14.00">等待队列存在进程P?</text>
</g>
<!-- B&#45;&gt;C -->
<g id="edge3" class="edge">
<title>B&#45;&gt;C</title>
<path fill="none" stroke="black" d="M391.96,-798.28C356.11,-783.58 299.57,-760.38 260.52,-744.35"/>
<polygon fill="black" stroke="black" points="261.98,-741.17 251.4,-740.61 259.32,-747.65 261.98,-741.17"/>
<text text-anchor="middle" x="347.88" y="-763.95" font-family="Times New Roman,serif" font-size="14.00">否</text>
</g>
<!-- H -->
<g id="node8" class="node">
<title>H</title>
<polygon fill="none" stroke="black" points="285,-474.75 164.61,-456.75 285,-438.75 405.39,-456.75 285,-474.75"/>
<text text-anchor="middle" x="285" y="-451.7" font-family="Times New Roman,serif" font-size="14.00">P时间片未结束?</text>
</g>
<!-- B&#45;&gt;H -->
<g id="edge2" class="edge">
<title>B&#45;&gt;H</title>
<path fill="none" stroke="black" d="M419.04,-795.49C412.59,-778.44 404,-751.09 404,-726.5 404,-726.5 404,-726.5 404,-528.75 404,-498.75 375.77,-481.13 346.81,-470.95"/>
<polygon fill="black" stroke="black" points="348.19,-467.72 337.6,-467.99 346.05,-474.38 348.19,-467.72"/>
<text text-anchor="middle" x="411.88" y="-632.33" font-family="Times New Roman,serif" font-size="14.00">是</text>
</g>
<!-- D -->
<g id="node4" class="node">
<title>D</title>
<polygon fill="none" stroke="black" points="217,-655.75 66.21,-637.75 217,-619.75 367.79,-637.75 217,-655.75"/>
<text text-anchor="middle" x="217" y="-632.7" font-family="Times New Roman,serif" font-size="14.00">就绪队列存在进程P?</text>
</g>
<!-- C&#45;&gt;D -->
<g id="edge5" class="edge">
<title>C&#45;&gt;D</title>
<path fill="none" stroke="black" d="M217,-707.15C217,-695.76 217,-680.59 217,-667.43"/>
<polygon fill="black" stroke="black" points="220.5,-667.59 217,-657.59 213.5,-667.59 220.5,-667.59"/>
<text text-anchor="middle" x="224.88" y="-676.2" font-family="Times New Roman,serif" font-size="14.00">否</text>
</g>
<!-- F -->
<g id="node6" class="node">
<title>F</title>
<polygon fill="none" stroke="black" points="139.38,-601.75 20.63,-601.75 20.63,-565.75 139.38,-565.75 139.38,-601.75"/>
<text text-anchor="middle" x="80" y="-578.7" font-family="Times New Roman,serif" font-size="14.00">P进入就绪队列</text>
</g>
<!-- C&#45;&gt;F -->
<g id="edge4" class="edge">
<title>C&#45;&gt;F</title>
<path fill="none" stroke="black" d="M153.78,-714.58C118.91,-705.52 78.45,-688.32 57,-655.75 48.28,-642.52 53.15,-625.72 60.6,-611.79"/>
<polygon fill="black" stroke="black" points="63.41,-613.91 65.55,-603.54 57.41,-610.31 63.41,-613.91"/>
<text text-anchor="middle" x="96.88" y="-676.2" font-family="Times New Roman,serif" font-size="14.00">是</text>
</g>
<!-- E -->
<g id="node5" class="node">
<title>E</title>
<ellipse fill="none" stroke="black" cx="168" cy="-529.75" rx="31.6" ry="18"/>
<text text-anchor="middle" x="168" y="-524.33" font-family="Times New Roman,serif" font-size="14.00">暂停</text>
</g>
<!-- D&#45;&gt;E -->
<g id="edge7" class="edge">
<title>D&#45;&gt;E</title>
<path fill="none" stroke="black" d="M197.54,-621.79C191.44,-616.15 185.26,-609.26 181.25,-601.75 174.31,-588.74 170.95,-572.71 169.34,-559.17"/>
<polygon fill="black" stroke="black" points="172.86,-559.21 168.48,-549.56 165.89,-559.84 172.86,-559.21"/>
<text text-anchor="middle" x="188.88" y="-578.33" font-family="Times New Roman,serif" font-size="14.00">否</text>
</g>
<!-- G -->
<g id="node7" class="node">
<title>G</title>
<polygon fill="none" stroke="black" points="352.25,-547.75 217.75,-547.75 217.75,-511.75 352.25,-511.75 352.25,-547.75"/>
<text text-anchor="middle" x="285" y="-524.7" font-family="Times New Roman,serif" font-size="14.00">设置P状态为运行</text>
</g>
<!-- D&#45;&gt;G -->
<g id="edge6" class="edge">
<title>D&#45;&gt;G</title>
<path fill="none" stroke="black" d="M227.33,-620.65C238.07,-603.9 255.07,-577.4 267.84,-557.5"/>
<polygon fill="black" stroke="black" points="270.63,-559.64 273.08,-549.33 264.73,-555.86 270.63,-559.64"/>
<text text-anchor="middle" x="268.88" y="-578.33" font-family="Times New Roman,serif" font-size="14.00">是</text>
</g>
<!-- F&#45;&gt;H -->
<g id="edge8" class="edge">
<title>F&#45;&gt;H</title>
<path fill="none" stroke="black" d="M87.41,-565.47C95.12,-549.43 108.63,-525.94 127,-511.75 153.87,-491 189.22,-477.93 219.67,-469.86"/>
<polygon fill="black" stroke="black" points="220.33,-473.3 229.18,-467.48 218.63,-466.51 220.33,-473.3"/>
</g>
<!-- G&#45;&gt;H -->
<g id="edge9" class="edge">
<title>G&#45;&gt;H</title>
<path fill="none" stroke="black" d="M285,-511.56C285,-503.98 285,-494.85 285,-486.29"/>
<polygon fill="black" stroke="black" points="288.5,-486.29 285,-476.29 281.5,-486.29 288.5,-486.29"/>
</g>
<!-- I -->
<g id="node9" class="node">
<title>I</title>
<polygon fill="none" stroke="black" points="361.63,-387 274.38,-387 274.38,-351 361.63,-351 361.63,-387"/>
<text text-anchor="middle" x="318" y="-363.95" font-family="Times New Roman,serif" font-size="14.00">P运行一次</text>
</g>
<!-- H&#45;&gt;I -->
<g id="edge10" class="edge">
<title>H&#45;&gt;I</title>
<path fill="none" stroke="black" d="M291.36,-439.22C295.88,-427.47 302.07,-411.4 307.34,-397.71"/>
<polygon fill="black" stroke="black" points="310.45,-399.37 310.77,-388.78 303.92,-396.85 310.45,-399.37"/>
<text text-anchor="middle" x="311.88" y="-407.45" font-family="Times New Roman,serif" font-size="14.00">是</text>
</g>
<!-- K -->
<g id="node11" class="node">
<title>K</title>
<polygon fill="none" stroke="black" points="232,-211.5 142.01,-193.5 232,-175.5 321.99,-193.5 232,-211.5"/>
<text text-anchor="middle" x="232" y="-188.45" font-family="Times New Roman,serif" font-size="14.00">P运行完成?</text>
</g>
<!-- H&#45;&gt;K -->
<g id="edge11" class="edge">
<title>H&#45;&gt;K</title>
<path fill="none" stroke="black" d="M279.77,-439.18C275.5,-425.32 269.45,-404.98 265,-387 255.43,-348.35 253.82,-338.47 247,-299.25 242.5,-273.38 238.35,-243.74 235.56,-222.61"/>
<polygon fill="black" stroke="black" points="239.04,-222.21 234.28,-212.74 232.09,-223.11 239.04,-222.21"/>
<text text-anchor="middle" x="259.88" y="-319.7" font-family="Times New Roman,serif" font-size="14.00">否</text>
</g>
<!-- J -->
<g id="node10" class="node">
<title>J</title>
<polygon fill="none" stroke="black" points="338,-299.25 255.97,-281.25 338,-263.25 420.03,-281.25 338,-299.25"/>
<text text-anchor="middle" x="338" y="-276.2" font-family="Times New Roman,serif" font-size="14.00">运行异常?</text>
</g>
<!-- I&#45;&gt;J -->
<g id="edge12" class="edge">
<title>I&#45;&gt;J</title>
<path fill="none" stroke="black" d="M322.05,-350.65C324.78,-338.91 328.46,-323.17 331.59,-309.75"/>
<polygon fill="black" stroke="black" points="334.96,-310.71 333.82,-300.18 328.14,-309.12 334.96,-310.71"/>
</g>
<!-- J&#45;&gt;K -->
<g id="edge14" class="edge">
<title>J&#45;&gt;K</title>
<path fill="none" stroke="black" d="M321.44,-266.85C304.45,-253.11 277.77,-231.53 257.97,-215.51"/>
<polygon fill="black" stroke="black" points="260.3,-212.89 250.33,-209.32 255.9,-218.33 260.3,-212.89"/>
<text text-anchor="middle" x="301.88" y="-231.95" font-family="Times New Roman,serif" font-size="14.00">否</text>
</g>
<!-- M -->
<g id="node13" class="node">
<title>M</title>
<polygon fill="none" stroke="black" points="458.38,-211.5 339.63,-211.5 339.63,-175.5 458.38,-175.5 458.38,-211.5"/>
<text text-anchor="middle" x="399" y="-188.45" font-family="Times New Roman,serif" font-size="14.00">P进入等待队列</text>
</g>
<!-- J&#45;&gt;M -->
<g id="edge13" class="edge">
<title>J&#45;&gt;M</title>
<path fill="none" stroke="black" d="M348.63,-265.31C357.31,-253.11 369.79,-235.56 380.16,-220.99"/>
<polygon fill="black" stroke="black" points="382.78,-223.33 385.73,-213.16 377.08,-219.28 382.78,-223.33"/>
<text text-anchor="middle" x="380.88" y="-231.95" font-family="Times New Roman,serif" font-size="14.00">是</text>
</g>
<!-- L -->
<g id="node12" class="node">
<title>L</title>
<polygon fill="none" stroke="black" points="232,-123.75 126.81,-105.75 232,-87.75 337.19,-105.75 232,-123.75"/>
<text text-anchor="middle" x="232" y="-100.7" font-family="Times New Roman,serif" font-size="14.00">P时间片结束?</text>
</g>
<!-- K&#45;&gt;L -->
<g id="edge16" class="edge">
<title>K&#45;&gt;L</title>
<path fill="none" stroke="black" d="M232,-175.15C232,-163.76 232,-148.59 232,-135.43"/>
<polygon fill="black" stroke="black" points="235.5,-135.59 232,-125.59 228.5,-135.59 235.5,-135.59"/>
<text text-anchor="middle" x="239.88" y="-144.2" font-family="Times New Roman,serif" font-size="14.00">否</text>
</g>
<!-- N -->
<g id="node14" class="node">
<title>N</title>
<polygon fill="none" stroke="black" points="493.25,-123.75 358.75,-123.75 358.75,-87.75 493.25,-87.75 493.25,-123.75"/>
<text text-anchor="middle" x="426" y="-100.7" font-family="Times New Roman,serif" font-size="14.00">设置P状态为完成</text>
</g>
<!-- K&#45;&gt;N -->
<g id="edge15" class="edge">
<title>K&#45;&gt;N</title>
<path fill="none" stroke="black" d="M258.97,-180.58C289.24,-167.2 338.97,-145.22 376.32,-128.71"/>
<polygon fill="black" stroke="black" points="377.38,-132.07 385.11,-124.82 374.55,-125.67 377.38,-132.07"/>
<text text-anchor="middle" x="353.88" y="-144.2" font-family="Times New Roman,serif" font-size="14.00">是</text>
</g>
<!-- L&#45;&gt;B -->
<g id="edge18" class="edge">
<title>L&#45;&gt;B</title>
<path fill="none" stroke="black" d="M179.65,-115.3C111.22,-127.98 0,-154.44 0,-192.5 0,-726.5 0,-726.5 0,-726.5 0,-782.47 143.09,-802.36 263.41,-809.2"/>
<polygon fill="black" stroke="black" points="262.92,-812.68 273.1,-809.72 263.3,-805.69 262.92,-812.68"/>
<text text-anchor="middle" x="7.88" y="-451.32" font-family="Times New Roman,serif" font-size="14.00">否</text>
</g>
<!-- O -->
<g id="node15" class="node">
<title>O</title>
<polygon fill="none" stroke="black" points="437.38,-36 318.63,-36 318.63,0 437.38,0 437.38,-36"/>
<text text-anchor="middle" x="378" y="-12.95" font-family="Times New Roman,serif" font-size="14.00">P进入就绪队列</text>
</g>
<!-- L&#45;&gt;O -->
<g id="edge17" class="edge">
<title>L&#45;&gt;O</title>
<path fill="none" stroke="black" d="M254.81,-91.35C277.14,-78.24 311.62,-57.99 338.42,-42.25"/>
<polygon fill="black" stroke="black" points="340.12,-45.31 346.97,-37.22 336.58,-39.27 340.12,-45.31"/>
<text text-anchor="middle" x="325.88" y="-56.45" font-family="Times New Roman,serif" font-size="14.00">是</text>
</g>
<!-- M&#45;&gt;B -->
<g id="edge19" class="edge">
<title>M&#45;&gt;B</title>
<path fill="none" stroke="black" d="M416.14,-211.92C430.27,-228.18 448,-253.84 448,-280.25 448,-726.5 448,-726.5 448,-726.5 448,-746.48 442.33,-768.28 436.74,-784.9"/>
<polygon fill="black" stroke="black" points="433.54,-783.47 433.47,-794.07 440.13,-785.83 433.54,-783.47"/>
</g>
<!-- N&#45;&gt;B -->
<g id="edge20" class="edge">
<title>N&#45;&gt;B</title>
<path fill="none" stroke="black" d="M447.66,-124.03C464.85,-139.83 486,-164.88 486,-192.5 486,-726.5 486,-726.5 486,-726.5 486,-750.95 469.43,-773.38 453.7,-789.17"/>
<polygon fill="black" stroke="black" points="451.6,-786.34 446.75,-795.75 456.41,-791.42 451.6,-786.34"/>
</g>
<!-- O&#45;&gt;B -->
<g id="edge21" class="edge">
<title>O&#45;&gt;B</title>
<path fill="none" stroke="black" d="M437.81,-29.69C478.12,-40.73 524,-62.57 524,-104.75 524,-726.5 524,-726.5 524,-726.5 524,-756.84 497.07,-778.93 471.45,-793.09"/>
<polygon fill="black" stroke="black" points="469.99,-789.9 462.72,-797.61 473.21,-796.12 469.99,-789.9"/>
</g>
</g>
</svg>
